<svg width="233" height="241" xmlns="http://www.w3.org/2000/svg" xmlns:xlink="http://www.w3.org/1999/xlink" overflow="hidden"><defs><clipPath id="clip0"><rect x="515" y="248" width="233" height="241"/></clipPath></defs><g clip-path="url(#clip0)" transform="translate(-515 -248)"><path d="M692.043 437.904 588.5 282.5" stroke="#00B0F0" stroke-width="6.66667" stroke-linecap="round" stroke-miterlimit="8" fill="none" fill-rule="evenodd"/><path d="M692.632 438.653 575.5 404.5" stroke="#00B0F0" stroke-width="6.66667" stroke-linecap="round" stroke-miterlimit="8" fill="none" fill-rule="evenodd"/><path d="M0 0 13.5892 121.251" stroke="#00B0F0" stroke-width="6.66667" stroke-linecap="round" stroke-miterlimit="8" fill="none" fill-rule="evenodd" transform="matrix(-1 -8.74228e-08 -8.74228e-08 1 706.089 316.5)"/><path d="M682.513 282.16 728.208 350.742C744.182 374.718 737.696 407.103 713.721 423.078L633.24 476.701C629.468 479.214 624.374 478.194 621.861 474.422L527.417 332.676C524.905 328.904 525.925 323.81 529.696 321.297L610.178 267.673C634.153 251.699 666.539 258.185 682.513 282.16Z" stroke="#9900FF" stroke-width="20.6667" stroke-miterlimit="8" fill="none" fill-rule="evenodd"/></g></svg>