<svg  viewBox="0 0 96 96" xmlns="http://www.w3.org/2000/svg" xmlns:xlink="http://www.w3.org/1999/xlink" id="Icons_LargePaintBrush_M" overflow="hidden"><g id="Icons"><path stroke="#FFFFFF" d="M78.574 8.671C77.305 9.2 74.039 12.641 73.093 13.658 67.713 19.039 60.268 28.041 56.818 34.042L44.818 22.129C43.6699 20.9975 41.8261 20.9975 40.678 22.129L8.943 53.87C7.79977 54.9767 7.77014 56.8006 8.87681 57.9438 8.89851 57.9662 8.92058 57.9883 8.943 58.01L33.405 82.5 44.622 71.892C44.677 71.84 44.683 71.846 44.637 71.905L35.081 84.021 38.049 87.121C39.1557 88.2642 40.9796 88.2939 42.1228 87.1872 42.1452 87.1655 42.1673 87.1434 42.189 87.121L73.923 55.381C75.0654 54.2584 75.0815 52.4223 73.9589 51.2799 73.9471 51.2679 73.9351 51.2559 73.923 51.244L62.007 39.232C68.085 35.709 77.078 28.274 82.375 22.975 83.413 21.984 86.839 18.662 87.349 17.539 88.6339 15.009 88.1242 11.9374 86.091 9.958 84.1338 7.93616 81.0923 7.41541 78.574 8.671ZM40.774 85.709C40.4347 86.0722 39.8652 86.0916 39.5019 85.7523 39.4924 85.7434 39.4831 85.7343 39.474 85.725L37.728 83.9 52.89 64.67 51.167 62.947 33.445 79.711 10.357 56.6C9.9947 56.2719 9.96696 55.7123 10.295 55.35 10.3147 55.3283 10.3353 55.3076 10.357 55.288L36.111 29.525 66.532 59.946ZM72.509 52.655C72.8713 52.9855 72.897 53.5472 72.5665 53.9095 72.5482 53.9295 72.529 53.9487 72.509 53.967L67.946 58.531 37.525 28.111 42.092 23.543C42.4255 23.1804 42.9898 23.1569 43.3524 23.4904 43.3706 23.5072 43.3882 23.5247 43.405 23.543L56.381 36.427 59.644 39.691ZM85.544 16.677C84.159 18.4226 82.6318 20.0505 80.978 21.544 75.608 26.916 66.452 34.463 60.541 37.759L58.293 35.511C61.501 29.688 69.066 20.511 74.531 15.046 75.9957 13.3638 77.6292 11.8364 79.406 10.488 81.6873 9.37007 84.443 10.3132 85.5609 12.5945 86.1925 13.8834 86.1863 15.3933 85.544 16.677Z"/><circle cx="81.317" cy="14.753" r="1.913"/></g></svg>